#!OML:ASF E:/inclinewalkrobotboard/Project1/Captureday1/Session1/subject1.ASF
:FULLY-SPECIFIED
:DEGREES
285
root 0 0 0 -2.147561349756108 -3.8018180955123606 0.49065241864128023
lowerback 7.607093964360816 1.5753684183115377 -2.529317713336906
upperback 1.8487957820019498 1.9523857788470678 -0.04866380794187464
thorax -2.3855323583870223 1.026071255622586 1.2577792429153027
lowerneck -9.372722281123282 -5.517136949866973 -6.388155654542669
upperneck 31.07677274782013 -8.633454560137562 6.057132471322983
head 11.625583270367565 -3.9371609983055853 2.017417924666909
rclavicle -1.370798663443799E-15 1.3480734820281472E-15
rhumerus -8.080723279833752 1.573966137030094 -79.55476886218008
rradius 48.55450154113394
rwrist -20.62033848191003
rhand -42.04750213159452 16.266590669786673
rfingers 7.1250199999999415
rthumb -14.88426743575327 -13.141968177958038
lclavicle -5.7339364306371015E-15 8.352804898576133E-16
lhumerus -30.754997138997815 11.777943687637036 77.43799264140765
lradius 24.887811844518332
lwrist -4.681557896072289
lhand -24.32242895063257 21.84572022579136
lfingers 7.125019999999955
lthumb 2.1683791557451575 51.785939583546245
rfemur -9.229562657555281 7.837677848581551 33.22410078848168
rtibia 35.28787710734025
rfoot -15.062512618323485 -9.72201303533347
rtoes 5.2192020608073495
lfemur -27.597064513145785 1.7796877104432038 -15.474321660851484
ltibia 44.704138800208696
lfoot -2.9673794109963527 -7.460479113953996
ltoes -3.673742496778899
286
root 0 0 0 -2.1754840304045047 -3.846279947960025 0.4854282127344987
lowerback 7.589025965022633 1.5609155703538125 -2.5247054456024967
upperback 1.8245094702833682 1.9344057690762062 -0.040776875596348905
thorax -2.4008389221060438 1.0165144343198314 1.2666725038586981
lowerneck -9.403455936965521 -5.504660180740264 -6.356997493377186
upperneck 31.157445130590855 -8.623637790419759 6.001467862162422
head 11.648843287223217 -3.9319446162411227 1.9954079134864962
rclavicle -1.4084868976612078E-15 1.2937010247251109E-15
rhumerus -7.76181594330588 1.2486662662205434 -79.44913147280546
rradius 48.28651828968431
rwrist -20.54760502597265
rhand -42.02810756586993 16.312738482611046
rfingers 7.12501999999994
rthumb -14.86378893428666 -13.094544512664273
lclavicle -5.7501283533122E-15 6.989730372152141E-16
lhumerus -30.63704596767779 11.681157506110186 77.63882221235531
lradius 24.95082432887587
lwrist -4.590839825448792
lhand -24.268393547295556 21.86323109249576
lfingers 7.125019999999953
lthumb 2.2199874993503577 51.80280050766548
rfemur -12.602354039543341 7.666571835902833 32.87257757044323
rtibia 37.264687402928516
rfoot -13.632781537624778 -9.811049521990231
rtoes 5.8615457622128115
lfemur -26.15892230952607 2.2134580806598265 -15.860185829539198
ltibia 47.81098586071406
lfoot -2.7327860946901996 -8.20513203023109
ltoes -4.009715864501884
287
root 0 0 0 -2.211132216689508 -3.89441104018713 0.4791439113559402
lowerback 7.558284196432652 1.5464225299291807 -2.517591084582377
upperback 1.7961025705137428 1.9167893185907634 -0.03372214617665248
thorax -2.412727630382142 1.0070602049739594 1.2731548799731054
lowerneck -9.433860999914657 -5.490495274781117 -6.3245250943746285
upperneck 31.243009586205375 -8.6131291801669 5.936486910993602
head 11.673709311038126 -3.92616572673403 1.9694157730006303
rclavicle -1.5478469455395058E-15 1.2653222592016266E-15
rhumerus -7.521357544435141 1.030727646397322 -79.3589286698837
rradius 48.16250160678822
rwrist -20.518892998587074
rhand -42.00100688624411 16.3038294081094
rfingers 7.125019999999939
rthumb -14.837301623346935 -13.102890195326985
lclavicle -5.814627391986881E-15 5.910603583866975E-16
lhumerus -30.519983720383795 11.574048261367343 77.84229534268533
lradius 25.00535931241322
lwrist -4.512648359858354
lhand -24.19432995770676 21.88854075213686
lfingers 7.125019999999952
lthumb 2.290820744981764 51.827239464664395
rfemur -15.000823331662827 7.518711484054539 32.70841801554601
rtibia 38.5913865924512
rfoot -12.660553501552743 -9.750521493242799
rtoes 6.490831619998827
lfemur -24.987954173493968 2.6430681180798583 -16.001515919809176
ltibia 51.16577753100726
lfoot -2.550658417347355 -8.618328019292479
ltoes -4.530301402426163
288
root 0 0 0 -2.249191508942256 -3.9347677408312065 0.47250806127603834
lowerback 7.516263320531277 1.535443835073126 -2.5074139082156557
upperback 1.7681998263675194 1.904262388074983 -0.028914545100790723
thorax -2.4170679027125495 1.0001587803819223 1.2748061615196753
lowerneck -9.458710014758621 -5.476121722800512 -6.29580124874396
upperneck 31.318452700626345 -8.602512576007388 5.871384992436207
head 11.696101922670959 -3.9202091547622118 1.943187833514712
rclavicle -1.774957961841412E-15 1.2657747468580654E-15
rhumerus -7.445410912984983 1.0029120466290444 -79.31366458398173
rradius 48.242783927601266
rwrist -20.556958623467747
rhand -41.96982314525846 16.224973563350673
rfingers 7.125019999999939
rthumb -14.808799942976634 -13.18234607486784
lclavicle -5.910292433118392E-15 5.268388569179931E-16
lhumerus -30.423242134732774 11.471191582604643 78.01652380686181
lradius 25.040526059657406
lwrist -4.462444628961681
lhand -24.107472458448566 21.91945612602261
lfingers 7.125019999999951
lthumb 2.3740393995364784 51.85713346121828
rfemur -16.088951726113184 7.442998674695643 32.700774968420255
rtibia 38.90841864254651
rfoot -12.337568878709305 -9.616211835906022
rtoes 7.015492051707925
lfemur -24.365906181556323 3.029108966840628 -15.788731797193108
ltibia 54.37636211782441
lfoot -2.530606956604702 -8.530438571387231
ltoes -5.186899893921659
289
root 0 0 0 -2.281541685088022 -3.957754913722998 0.46708346575680665
lowerback 7.469140057494327 1.5308266148429475 -2.4951490029711474
upperback 1.7480076126851274 1.9003815746190287 -0.02726139288516427
thorax -2.409935793230304 0.9977627455020852 1.2709006200715525
lowerneck -9.468701025232464 -5.463689192302028 -6.276337140375857
upperneck 31.369215957661343 -8.593308113153746 5.818822633586289
head 11.711420467038595 -3.9150926909314836 1.9218033142930904
rclavicle -2.0409126596058983E-15 1.2796427376892214E-15
rhumerus -7.576453123656147 1.2041423424241722 -79.32693914014736
rradius 48.54547303418272
rwrist -20.66721601590767
rhand -41.93405109060773 16.07927271115728
rfingers 7.125019999999939
rthumb -14.777682589933521 -13.33038278851557
lclavicle -6.014081722151043E-15 4.986294457165495E-16
lhumerus -30.361505407200454 11.384953725381262 78.1372203388189
lradius 25.053004871055837
lwrist -4.444344600803548
lhand -24.021692318460353 21.952417034604014
lfingers 7.12501999999995
lthumb 2.456394281418108 51.889047846767006
rfemur -15.870578356705037 7.469011343648775 32.76737764594986
rtibia 38.18977986477795
rfoot -12.675814384841585 -9.514751883049922
rtoes 7.316870894557802
lfemur -24.352400985553917 3.3737493321338548 -15.258790468784042
ltibia 57.175677048016894
lfoot -2.790992108241639 -7.954913634890824
ltoes -5.923654727111643
290
root 0 0 0 -2.3008500918371184 -3.9614079594816873 0.46451347971967566
lowerback 7.427522069438052 1.5328930204562876 -2.4838775909277606
upperback 1.741329859842521 1.905031243674733 -0.028912845235213314
thorax -2.39159444671422 0.9999801434449386 1.2630051648470841
lowerneck -9.456536580868836 -5.4558681834453635 -6.270198561956795
upperneck 31.384309557904476 -8.587991116897612 5.790691076703509
head 11.715591879569303 -3.9122903997096214 1.9099690506792768
rclavicle -2.3081506103527582E-15 1.3014454816670326E-15
rhumerus -7.8945401512183615 1.612228034171109 -79.39159528098202
rradius 49.046228191412354
rwrist -20.83214497017832
rhand -41.893567448869256 15.885058880114297
rfingers 7.125019999999941
rthumb -14.743158005674069 -13.528703041814198
lclavicle -6.127848169224636E-15 5.102109651043518E-16
lhumerus -30.341510343676386 11.32321870964092 78.19231987829644
lradius 25.046269142228365
lwrist -4.452787800972823
lhand -23.952164388253944 21.983782008785425
lfingers 7.12501999999995
lthumb 2.523273324232812 51.91946968049117
rfemur -14.295537382056276 7.596218549557775 32.88754911005421
rtibia 36.52979579262508
rfoot -13.677774162825314 -9.483313867757284
rtoes 7.321596201177702
lfemur -24.800269067825777 3.6602845246275972 -14.591140367443751
ltibia 59.29523726872671
lfoot -3.315834553132447 -7.085607028505484
ltoes -6.644671989203516
291
root 0 0 0 -2.302592868324278 -3.948722656810146 0.46592498883332817
lowerback 7.401570907175063 1.5404232096585013 -2.4771962972937174
upperback 1.7511025368967243 1.9159786719635132 -0.03368020021792073
thorax -2.365068075341858 1.005798753761264 1.25341738971101
lowerneck -9.419007261220823 -5.4551342247701475 -6.279893178655988
upperneck 31.357232343295166 -8.58912491927934 5.795229005877802
head 11.705910129817031 -3.913195310716613 1.9108965443266794
rclavicle -2.5749282953705537E-15 1.350899608408162E-15
rhumerus -8.343684663599138 2.1668152364063893 -79.4918657805492
rradius 49.69391250340449
rwrist -21.022209292490764
rhand -41.85367885189158 15.667010774308354
rfingers 7.125019999999942
rthumb -14.709572431615427 -13.751851343352802
lclavicle -6.276970947110701E-15 5.916913298819566E-16
lhumerus -30.364143650140065 11.2925264414373 78.17753304398242
lradius 25.02469189404
lwrist -4.481760533289772
lhand -23.910171861794787 22.00979286700076
lfingers 7.12501999999995
lthumb 2.5637432880663287 51.944728533518884
rfemur -11.325752866926488 7.7967317810338725 33.11594047878711
rtibia 34.128921044102526
rfoot -15.28262824950426 -9.47635193924009
rtoes 7.021845834983113
lfemur -25.488823851909125 3.8294116109075595 -14.007663335793557
ltibia 60.37398608012073
lfoot -3.926102461891637 -6.208277883989419
ltoes -7.203586266440178
292
root 0 0 0 -2.2860584427170116 -3.923263432383749 0.47163187489154784
lowerback 7.395624534815058 1.5521704118476052 -2.477163047421709
upperback 1.7772862460857803 1.9312319261131525 -0.04127552588702532
thorax -2.333026874677585 1.0142427098915185 1.2436659931469976
lowerneck -9.357025550255631 -5.462579944704152 -6.306035069360728
upperneck 31.289511119750635 -8.598074510186821 5.8342818038670785
head 11.682610970819734 -3.918463629248636 1.925254325983585
rclavicle -2.842858155632954E-15 1.4530362258386245E-15
rhumerus -8.849186409928265 2.784194987969065 -79.61045785655936
rradius 50.40674451885235
rwrist -21.206117362299025
rhand -41.82408787027678 15.455844128351425
rfingers 7.125019999999945
rthumb -14.685761770795715 -13.967890763585011
lclavicle -6.4689904625767985E-15 7.676226617729828E-16
lhumerus -30.425298344419584 11.299037661255472 78.09485292143486
lradius 24.99043341331347
lwrist -4.52925060299496
lhand -23.90043560335856 22.026327328528502
lfingers 7.12501999999995
lthumb 2.573191879254227 51.96077465408525
rfemur -7.316916749153898 8.015769420669624 33.51884386495168
rtibia 31.473878242802208
rfoot -17.210844304788083 -9.413820355083574
rtoes 6.474936357586422
lfemur -26.34644349809311 3.822436261014861 -13.59625489752825
ltibia 60.10060840016634
lfoot -4.471530665733081 -5.457107087229849
ltoes -7.5122913097678214
